<svg xmlns="http://www.w3.org/2000/svg" version="1.1" xmlns:xlink="http://www.w3.org/1999/xlink" xmlns:svgjs="http://svgjs.dev/svgjs" width="1000" height="1000" viewBox="0 0 1000 1000"><rect width="1000" height="1000" fill="#000000"></rect><g transform="matrix(0.7,0,0,0.7,149.57575757575756,305.75515789473695)"><svg viewBox="0 0 396 247" data-background-color="#ffffff" preserveAspectRatio="xMidYMid meet" height="623" width="1000" xmlns="http://www.w3.org/2000/svg" xmlns:xlink="http://www.w3.org/1999/xlink"><defs></defs><g id="tight-bounds" transform="matrix(1,0,0,1,0.2400000000000091,-0.09999999999999432)"><svg viewBox="0 0 395.52 247.2" height="247.2" width="395.52"><g><svg></svg></g><g><svg viewBox="0 0 395.52 247.2" height="247.2" width="395.52"><g transform="matrix(1,0,0,1,75.54432,50.977263703634975)"><svg viewBox="0 0 244.43135999999998 145.24547259273004" height="145.24547259273004" width="244.43135999999998"><g><svg viewBox="0 0 244.43135999999998 145.24547259273004" height="145.24547259273004" width="244.43135999999998"><g><svg viewBox="0 0 244.43135999999998 145.24547259273004" height="145.24547259273004" width="244.43135999999998"><g><svg viewBox="0 0 244.43135999999998 145.24547259273004" height="145.24547259273004" width="244.43135999999998"><g><svg viewBox="0 0 244.43135999999998 145.24547259273004" height="145.24547259273004" width="244.43135999999998"><g><svg viewBox="0 0 244.43135999999998 98.55122030861124" height="98.55122030861124" width="244.43135999999998"><g transform="matrix(1,0,0,1,0,0)"><svg width="244.43135999999998" viewBox="3.1500000953674316 -40.5 100.43999481201172 40.5" height="98.55122030861124" data-palette-color="#636365"><path d="M8.8 0L3.15 0 3.15-40.5 18.8-40.5 18.8-36.45 8.8-36.45 8.8-22.95 16.55-22.95 16.55-18.95 8.8-18.95 8.8 0ZM33.15-13.05L22-13.05 22-17.1 33.15-17.1 33.15-13.05ZM43.24 0L38.64 0 39.39-40.5 44.95-40.5 52.09-7.65 59.3-40.5 64.8-40.5 65.55 0 61 0 60.55-29.4 53.7 0 50.49 0 43.7-29.4 43.24 0ZM82.19-13.05L71.04-13.05 71.04-17.1 82.19-17.1 82.19-13.05ZM103.59 0L87.79 0 87.79-40.5 103.49-40.5 103.49-36.3 93.44-36.3 93.44-22.9 101.59-22.9 101.59-18.9 93.44-18.9 93.44-4.05 103.59-4.05 103.59 0Z" opacity="1" transform="matrix(1,0,0,1,0,0)" fill="#ffffff" class="undefined-text-0" data-fill-palette-color="primary" id="text-0"></path></svg></g></svg></g><g transform="matrix(1,0,0,1,0,121.81679819418694)"><svg viewBox="0 0 244.43135999999998 23.428674398543087" height="23.428674398543087" width="244.43135999999998"><g transform="matrix(1,0,0,1,0,0)"><svg width="244.43135999999998" viewBox="2.25 -37.54999923706055 521.5999755859375 50" height="23.428674398543087" data-palette-color="#636365"><path d="M5.4-11.2L5.4-11.2Q5.4-6.75 7.95-4.73 10.5-2.7 13.9-2.7L13.9-2.7Q16.1-2.7 18.43-3.13 20.75-3.55 21.5-3.9L21.5-3.9 22.15-1.55Q21-0.8 18.38-0.3 15.75 0.2 13.58 0.2 11.4 0.2 9.68-0.25 7.95-0.7 6.15-1.85 4.35-3 3.3-5.45 2.25-7.9 2.25-11.45L2.25-11.45Q2.25-18.05 5.65-21.55L5.65-21.55Q9.2-25.2 13.9-25.2 18.6-25.2 21.08-22.6 23.55-20 23.55-15.3L23.55-15.3Q23.55-14.3 23.4-13.15L23.4-13.15 5.55-13.15Q5.4-12.1 5.4-11.2ZM20.55-15.65L20.55-15.65Q20.55-18.75 18.7-20.43 16.85-22.1 14.4-22.1L14.4-22.1Q11.05-22.1 8.85-20.08 6.65-18.05 5.9-15.1L5.9-15.1 20.55-15.1Q20.55-15.4 20.55-15.65ZM34.4 0.2L34.4 0.2Q27.75 0.2 27.35-5.05L27.35-5.05Q27.3-5.4 27.3-5.75L27.3-5.75Q27.3-9.95 32.35-11.35L32.35-11.35Q35.15-12.05 43.15-12.95L43.15-12.95 43.15-16.8Q43.15-22.25 37.45-22.25L37.45-22.25Q33.35-22.2 28.75-20.35L28.75-20.35 27.9-22.5 28.4-22.7Q32.3-24.4 34.35-24.75 36.4-25.1 37.35-25.13 38.3-25.15 39.17-25.1 40.05-25.05 41.45-24.65 42.85-24.25 43.87-23.53 44.9-22.8 45.65-21.35 46.4-19.9 46.4-17.9L46.4-17.9 46.4-2.5 50.25-2.5 50.25 0 43.65 0 43.15-1.9Q38.65 0.2 34.4 0.2ZM35.3-2.1L35.3-2.1Q39.1-2.1 43.15-3.8L43.15-3.8 43.15-10.95Q35.65-10.7 33.45-9.95L33.45-9.95Q31.75-9.5 31.05-8.33 30.35-7.15 30.35-6.45 30.35-5.75 30.35-5.5L30.35-5.5Q30.5-3.7 31.9-2.9 33.3-2.1 35.3-2.1ZM56.25-8.05L56.5-3.25Q58.6-2.6 59.87-2.6 61.15-2.6 61.55-2.65L61.55-2.65Q64.15-2.7 65.9-3.75 67.65-4.8 67.65-6.7 67.65-8.6 66.27-9.65 64.9-10.7 62.95-11.25 61-11.8 59.05-12.45 57.1-13.1 55.72-14.5 54.35-15.9 54.35-18.15L54.35-18.15Q54.35-21.35 56.8-23.28 59.25-25.2 63-25.2L63-25.2Q65.8-25.2 68.65-24.2L68.65-24.2 69.55-23.85 69.55-18.1 67.09-17.75 66.9-22Q64.9-22.3 63.55-22.3L63.55-22.3Q60.8-22.3 59.2-21.23 57.6-20.15 57.6-18.48 57.6-16.8 58.97-15.85 60.35-14.9 62.3-14.35 64.25-13.8 66.2-13.13 68.15-12.45 69.52-10.93 70.9-9.4 70.9-6.95L70.9-6.95Q70.9-3.65 68.42-1.73 65.95 0.2 61.4 0.2 56.85 0.2 53.85-1.95L53.85-1.95 53.85-7.7 56.25-8.05ZM95.49-22.5L92.74-22.5 92.74-25 101.94-25 101.94-22.5 98.94-22.5 88.99 0 87.34 9.95 91.54 9.95 91.54 12.45 80.99 12.45 80.99 9.95 84.09 9.95 85.64 0 84.79 0 76.69-22.5 73.29-22.5 73.29-25 83.84-25 83.84-22.5 80.39-22.5 86.99-2.35 95.49-22.5ZM124.34-22.5L120.89-22.5 120.89-25 131.39-25 131.39-22.5 128.04-22.5 133.59-4.05 140.14-24.75 143.34-25 148.84-4.05 155.29-22.5 151.89-22.5 151.89-25 161.89-25 161.89-22.5 158.99-22.5 150.44 0 147.44 0 141.59-19.85 134.84 0 131.84 0 124.34-22.5ZM171.59 0.2L171.59 0.2Q164.94 0.2 164.54-5.05L164.54-5.05Q164.49-5.4 164.49-5.75L164.49-5.75Q164.49-9.95 169.54-11.35L169.54-11.35Q172.34-12.05 180.34-12.95L180.34-12.95 180.34-16.8Q180.34-22.25 174.64-22.25L174.64-22.25Q170.54-22.2 165.94-20.35L165.94-20.35 165.09-22.5 165.59-22.7Q169.49-24.4 171.54-24.75 173.59-25.1 174.54-25.13 175.49-25.15 176.36-25.1 177.24-25.05 178.64-24.65 180.04-24.25 181.06-23.53 182.09-22.8 182.84-21.35 183.59-19.9 183.59-17.9L183.59-17.9 183.59-2.5 187.44-2.5 187.44 0 180.84 0 180.34-1.9Q175.84 0.2 171.59 0.2ZM172.49-2.1L172.49-2.1Q176.29-2.1 180.34-3.8L180.34-3.8 180.34-10.95Q172.84-10.7 170.64-9.95L170.64-9.95Q168.94-9.5 168.24-8.33 167.54-7.15 167.54-6.45 167.54-5.75 167.54-5.5L167.54-5.5Q167.69-3.7 169.09-2.9 170.49-2.1 172.49-2.1ZM209.48-22.5L206.73-22.5 206.73-25 215.93-25 215.93-22.5 212.93-22.5 202.98 0 201.33 9.95 205.53 9.95 205.53 12.45 194.98 12.45 194.98 9.95 198.08 9.95 199.63 0 198.78 0 190.68-22.5 187.28-22.5 187.28-25 197.83-25 197.83-22.5 194.38-22.5 200.98-2.35 209.48-22.5ZM246.28-2.45L246.28-2.45 248.23-2.55 248.38-0.55Q248.33-0.55 247.68-0.4L247.68-0.4Q246.18-0.05 244.33-0.05L244.33-0.05Q242.63-0.15 241.23-0.63 239.83-1.1 238.63-2.63 237.43-4.15 237.43-6.55L237.43-6.55 237.43-22.1 234.88-22.1 235.28-24.5 237.48-24.95 237.88-29.75 240.68-30 240.68-25 246.73-25 246.73-22.1 240.68-22.1 240.68-7.4Q240.68-2.45 246.28-2.45ZM262 0.2Q256.78 0.2 253.55-2.8 250.33-5.8 250.33-11.98 250.33-18.15 253.75-21.68 257.18-25.2 262.38-25.2 267.58-25.2 270.83-22.2 274.08-19.2 274.08-13.03 274.08-6.85 270.65-3.33 267.23 0.2 262 0.2ZM262.3-22.3Q258.58-22.3 256.08-19.6 253.58-16.9 253.58-12.28 253.58-7.65 255.95-5.18 258.33-2.7 262.08-2.7 265.83-2.7 268.33-5.38 270.83-8.05 270.83-12.68 270.83-17.3 268.43-19.8 266.03-22.3 262.3-22.3ZM305.2 0.2Q299.97 0.2 296.75-2.8 293.52-5.8 293.52-11.98 293.52-18.15 296.95-21.68 300.37-25.2 305.57-25.2 310.77-25.2 314.02-22.2 317.27-19.2 317.27-13.03 317.27-6.85 313.85-3.33 310.42 0.2 305.2 0.2ZM305.5-22.3Q301.77-22.3 299.27-19.6 296.77-16.9 296.77-12.28 296.77-7.65 299.15-5.18 301.52-2.7 305.27-2.7 309.02-2.7 311.52-5.38 314.02-8.05 314.02-12.68 314.02-17.3 311.62-19.8 309.22-22.3 305.5-22.3ZM326.57-16.75L326.57-2.5 330.72-2.5 330.72 0 320.22 0 320.22-2.5 323.32-2.5 323.32-22.5 319.97-22.5 319.97-25 326.57-25 326.57-18.95Q330.52-24.75 334.32-24.85L334.32-24.85Q334.62-24.85 334.92-24.85L334.92-24.85 337.72-24.5 336.42-21.5Q335.47-21.95 333.97-21.95L333.97-21.95Q330.37-21.9 326.57-16.75L326.57-16.75ZM343.17-1.85L343.17-1.85Q341.42-3 340.34-5.48 339.27-7.95 339.27-11.5L339.27-11.5Q339.27-18.05 342.62-21.5L342.62-21.5Q346.17-25.2 350.72-25.2L350.72-25.2Q353.52-25.2 356.42-23.75L356.42-23.75 356.42-35 353.07-35 353.07-37.5 359.67-37.5 359.67-2.5 363.52-2.5 363.52 0 356.92 0 356.52-1.6Q353.67 0.2 349.97 0.2 346.27 0.2 343.17-1.85ZM356.42-4.05L356.42-4.05 356.42-21.6Q354.12-22.3 352.07-22.3L352.07-22.3Q347.77-22.3 345.14-19.48 342.52-16.65 342.52-11.55L342.52-11.55Q342.52-8.85 343.29-6.98 344.07-5.1 345.37-4.2L345.37-4.2Q347.62-2.7 350.62-2.7 353.62-2.7 356.42-4.05ZM368.86-11.2L368.86-11.2Q368.86-6.75 371.41-4.73 373.96-2.7 377.36-2.7L377.36-2.7Q379.56-2.7 381.89-3.13 384.21-3.55 384.96-3.9L384.96-3.9 385.61-1.55Q384.46-0.8 381.84-0.3 379.21 0.2 377.04 0.2 374.86 0.2 373.14-0.25 371.41-0.7 369.61-1.85 367.81-3 366.76-5.45 365.71-7.9 365.71-11.45L365.71-11.45Q365.71-18.05 369.11-21.55L369.11-21.55Q372.66-25.2 377.36-25.2 382.06-25.2 384.54-22.6 387.01-20 387.01-15.3L387.01-15.3Q387.01-14.3 386.86-13.15L386.86-13.15 369.01-13.15Q368.86-12.1 368.86-11.2ZM384.01-15.65L384.01-15.65Q384.01-18.75 382.16-20.43 380.31-22.1 377.86-22.1L377.86-22.1Q374.51-22.1 372.31-20.08 370.11-18.05 369.36-15.1L369.36-15.1 384.01-15.1Q384.01-15.4 384.01-15.65ZM396.81-16.75L396.81-2.5 400.96-2.5 400.96 0 390.46 0 390.46-2.5 393.56-2.5 393.56-22.5 390.21-22.5 390.21-25 396.81-25 396.81-18.95Q400.76-24.75 404.56-24.85L404.56-24.85Q404.86-24.85 405.16-24.85L405.16-24.85 407.96-24.5 406.66-21.5Q405.71-21.95 404.21-21.95L404.21-21.95Q400.61-21.9 396.81-16.75L396.81-16.75ZM430.01-31.05Q430.01-34.5 432.26-36.02 434.51-37.55 437.01-37.55 439.51-37.55 440.91-37L440.91-37 440.76-34.65Q439.56-34.8 438.68-34.8 437.81-34.8 436.98-34.63 436.16-34.45 435.26-34L435.26-34Q433.26-32.9 433.26-29.9L433.26-29.9 433.26-25 439.31-25 439.31-22.1 433.26-22.1 433.26-2.5 437.51-2.5 437.51 0 426.91 0 426.91-2.5 430.01-2.5 430.01-22.1 427.46-22.1 427.86-24.5 430.01-24.95 430.01-31.05ZM454.78 0.2Q449.55 0.2 446.33-2.8 443.1-5.8 443.1-11.98 443.1-18.15 446.53-21.68 449.95-25.2 455.15-25.2 460.35-25.2 463.6-22.2 466.85-19.2 466.85-13.03 466.85-6.85 463.43-3.33 460 0.2 454.78 0.2ZM455.08-22.3Q451.35-22.3 448.85-19.6 446.35-16.9 446.35-12.28 446.35-7.65 448.73-5.18 451.1-2.7 454.85-2.7 458.6-2.7 461.1-5.38 463.6-8.05 463.6-12.68 463.6-17.3 461.2-19.8 458.8-22.3 455.08-22.3ZM483.03 0.2Q477.8 0.2 474.58-2.8 471.35-5.8 471.35-11.98 471.35-18.15 474.78-21.68 478.2-25.2 483.4-25.2 488.6-25.2 491.85-22.2 495.1-19.2 495.1-13.03 495.1-6.85 491.68-3.33 488.25 0.2 483.03 0.2ZM483.33-22.3Q479.6-22.3 477.1-19.6 474.6-16.9 474.6-12.28 474.6-7.65 476.98-5.18 479.35-2.7 483.1-2.7 486.85-2.7 489.35-5.38 491.85-8.05 491.85-12.68 491.85-17.3 489.45-19.8 487.05-22.3 483.33-22.3ZM503.5-1.85L503.5-1.85Q501.75-3 500.67-5.48 499.6-7.95 499.6-11.5L499.6-11.5Q499.6-18.05 502.95-21.5L502.95-21.5Q506.5-25.2 511.05-25.2L511.05-25.2Q513.85-25.2 516.75-23.75L516.75-23.75 516.75-35 513.4-35 513.4-37.5 520-37.5 520-2.5 523.85-2.5 523.85 0 517.25 0 516.85-1.6Q514 0.2 510.3 0.2 506.6 0.2 503.5-1.85ZM516.75-4.05L516.75-4.05 516.75-21.6Q514.45-22.3 512.4-22.3L512.4-22.3Q508.1-22.3 505.47-19.48 502.85-16.65 502.85-11.55L502.85-11.55Q502.85-8.85 503.62-6.98 504.4-5.1 505.7-4.2L505.7-4.2Q507.95-2.7 510.95-2.7 513.95-2.7 516.75-4.05Z" opacity="1" transform="matrix(1,0,0,1,0,0)" fill="#ffffff" class="undefined-text-1" data-fill-palette-color="secondary" id="text-1"></path></svg></g></svg></g></svg></g></svg></g></svg></g></svg></g></svg></g><g><path d="M244.431 219.488A122.216 122.216 0 1 1 244.431 27.712L235.544 27.712A113.328 113.328 0 1 0 235.544 219.488L244.431 219.488" fill="#636365" stroke="transparent" data-fill-palette-color="tertiary"></path></g></svg></g></svg><rect width="395.52" height="247.2" fill="none" stroke="none" visibility="hidden"></rect></g></svg></g></svg>